PathFileType	4	(X/Y/Z)	./resultDataOpenSim/trcMotMarkerGrf/sub10/qtm-05-07.trc
DataRate	CameraRate	NumFrames	NumMarkers	Units	OrigDataRate	OrigDataStartFrame	OrigNumFrames
250.000000	250.000000	8	24	m	250.000000	1	513
Frame#	Time	L.Toe.Tip			R.Toe.Tip			L.Ankle.Lat			R.Ankle.Lat			L.Ankle.Med			R.Ankle.Med			L.Heel			R.Heel			L.Knee.Lat			R.Knee.Lat			L.Knee.Med			R.Knee.Med			L.Thigh.Upper			R.Thigh.Upper			L.ASIS			R.ASIS			V.Sacral			L.Acromium			R.Acromium			C7			L.Elbow			R.Elbow			L.Wrist.Lat			R.Wrist.Lat
		X1	Y1	Z1	X2	Y2	Z2	X3	Y3	Z3	X4	Y4	Z4	X5	Y5	Z5	X6	Y6	Z6	X7	Y7	Z7	X8	Y8	Z8	X9	Y9	Z9	X10	Y10	Z10	X11	Y11	Z11	X12	Y12	Z12	X13	Y13	Z13	X14	Y14	Z14	X15	Y15	Z15	X16	Y16	Z16	X17	Y17	Z17	X18	Y18	Z18	X19	Y19	Z19	X20	Y20	Z20	X21	Y21	Z21	X22	Y22	Z22	X23	Y23	Z23	X24	Y24	Z24

1	0	-1.4915266	0.038286787	-0.12393527	-0.90185354	0.085875958	0.037074631	-1.6242369	0.067593158	-0.13582513	-1.040803	0.063460219	0.05858553	-1.6130003	0.087137333	-0.052349768	-1.0217902	0.1009865	-0.019297929	NaN	NaN	NaN	-1.073663	0.0275122	0.0028216109	-1.4782047	0.42670575	-0.17567101	-1.1515025	0.44756594	0.097556227	-1.4697656	0.40247273	-0.054346613	-1.1268727	0.46063613	-0.030028343	-1.3736517	0.80836781	-0.2346307	-1.3131374	0.82899977	0.14639759	-1.2895385	0.90785031	-0.17830184	-1.2496106	0.91842277	0.064396066	-1.4707523	0.93662816	-0.035132681	-1.2757612	1.3895615	-0.20187815	-1.3123887	1.3791579	0.11764728	-1.3712626	1.4186882	-0.056140804	-1.3275174	1.0522469	-0.30791309	-1.482568	1.0693982	0.14578813	-1.1228752	0.9142217	-0.26079295	-1.3912461	0.85498598	0.22263955
2	0.004	-1.4915624	0.038255114	-0.1239452	-0.88982142	0.088398363	0.037052247	-1.6240275	0.068051792	-0.13571609	-1.0290186	0.063911228	0.059184066	-1.6118887	0.087682244	-0.05254509	-1.0112917	0.10145231	-0.018871782	NaN	NaN	NaN	-1.0616712	0.027403448	0.003727915	-1.4756163	0.426204	-0.17557564	-1.1457148	0.44621732	0.098245181	-1.467172	0.40185733	-0.054315319	-1.1221323	0.45886732	-0.029748493	-1.3696989	0.8074324	-0.23461847	-1.3077187	0.82753263	0.14627057	-1.2854043	0.90671995	-0.17851602	-1.2440646	0.91730661	0.064136879	-1.4661839	0.93494502	-0.034733	-1.2708965	1.3881231	-0.20191988	-1.3081609	1.3777886	0.1175776	-1.36674	1.417328	-0.056490299	-1.321032	1.050488	-0.30773723	-1.4792612	1.0677483	0.14397215	-1.1153864	0.91466976	-0.25960303	-1.3892336	0.85431549	0.22302144
3	0.008	-1.4916038	0.038231989	-0.12394927	-0.87806789	0.090940981	0.037088805	-1.6238175	0.068527382	-0.13560441	-1.0173504	0.064403605	0.059855504	-1.6108453	0.088228073	-0.052681688	-1.0008881	0.10194309	-0.018440255	NaN	NaN	NaN	-1.0498901	0.027302973	0.0046194027	-1.4726888	0.4257392	-0.17551271	-1.1400197	0.44490595	0.098907494	-1.4645344	0.40124183	-0.05427135	-1.1174115	0.45711981	-0.029443318	-1.3657397	0.80647778	-0.23457375	-1.3020003	0.82615194	0.14622433	-1.281273	0.90560557	-0.17873042	-1.2386092	0.9161815	0.063853232	-1.4616685	0.93331621	-0.03460235	-1.266014	1.3866893	-0.20194784	-1.3038689	1.376429	0.11750528	-1.3621782	1.4159724	-0.056774152	-1.3146052	1.0487465	-0.30757573	-1.4760087	1.0664893	0.14265421	-1.107841	0.91512472	-0.25837221	-1.3873841	0.85360601	0.22339686
4	0.012	-1.4916471	0.038219391	-0.12394969	-0.86687126	0.09344823	0.037198876	-1.6236014	0.06904883	-0.1354991	-1.0058996	0.064943488	0.060610971	-1.6099227	0.088773511	-0.052738627	-0.99068281	0.10245338	-0.017995573	NaN	NaN	NaN	-1.0384508	0.027211883	0.0054959019	-1.4693611	0.4253145	-0.17547729	-1.1344461	0.44365177	0.099532551	-1.4618196	0.40060776	-0.054210731	-1.1127061	0.4554043	-0.02909431	-1.361765	0.80550092	-0.23451382	-1.2955931	0.82492568	0.14633116	-1.2771357	0.9045	-0.17895211	-1.2332481	0.91504762	0.063532661	-1.4572023	0.93177107	-0.034814993	-1.261103	1.3852588	-0.20194832	-1.2994924	1.3750835	0.11743606	-1.3575623	1.4146242	-0.056985295	-1.3082545	1.0470245	-0.30742274	-1.4729147	1.0659803	0.14226544	-1.1002409	0.9155944	-0.25709105	-1.3857842	0.85282389	0.22376405
5	0.016	-1.4916791	0.038211579	-0.12395284	-0.85635231	0.095841523	0.037378585	-1.6233661	0.069634949	-0.13540697	-0.99477576	0.065502462	0.061425037	-1.6091725	0.089307072	-0.052724222	-0.9807723	0.10294994	-0.017527044	NaN	NaN	NaN	-1.0274232	0.027117886	0.0063803549	-1.4659806	0.42488353	-0.17544572	-1.1289291	0.44247668	0.10013509	-1.4589933	0.39994829	-0.054140682	-1.1080019	0.45372667	-0.028691134	-1.3577799	0.80450779	-0.23449896	-1.2882759	0.82388827	0.14663502	-1.2729824	0.90338881	-0.17918994	-1.2278937	0.91391785	0.063184582	-1.4527299	0.93030344	-0.035206723	-1.2561735	1.3838327	-0.20191725	-1.295073	1.3737516	0.1173825	-1.3529072	1.4132873	-0.057155024	-1.3019498	1.0453132	-0.30722059	-1.4699586	1.0660836	0.14261353	-1.0926435	0.91607845	-0.25577601	-1.3842355	0.8520056	0.22414553
6	0.02	-1.491687	0.038201476	-0.12396049	-0.84641327	0.09808008	0.037623556	-1.6230957	0.070277501	-0.13531567	-0.98406635	0.066037042	0.062275376	-1.6085956	0.089821587	-0.052655279	-0.97121329	0.10339778	-0.01702021	NaN	NaN	NaN	-1.0168267	0.027003012	0.0073130832	-1.4629087	0.4243973	-0.17540522	-1.1233156	0.44141548	0.10075199	-1.4560151	0.39928065	-0.054076264	-1.1032725	0.45209229	-0.028233299	-1.3537922	0.80350114	-0.23456753	-1.2804812	0.82296419	0.14705189	-1.2687979	0.90227222	-0.17944436	-1.2224391	0.91280232	0.062827653	-1.4480937	0.92884534	-0.035261477	-1.2512372	1.3824208	-0.20186813	-1.2906264	1.3724389	0.11735412	-1.3482246	1.4119642	-0.057301804	-1.2956169	1.0436036	-0.30686803	-1.4669987	1.0662234	0.14294216	-1.0851022	0.91657514	-0.25445009	-1.3824392	0.8512362	0.22454752
7	0.024	-1.4916689	0.038187992	-0.12396987	-0.83690439	0.10013922	0.037881195	-1.6227813	0.070962397	-0.13520932	-0.97383813	0.06649781	0.063137645	-1.608091	0.090337764	-0.052547834	-0.96203711	0.10377784	-0.016465364	NaN	NaN	NaN	-1.0066604	0.026861693	0.0083249641	-1.4601089	0.42385529	-0.17534739	-1.1174778	0.44049482	0.10141422	-1.4528853	0.39861282	-0.054026057	-1.098491	0.45050844	-0.027733748	-1.3497927	0.80249246	-0.23468681	-1.2730933	0.82199044	0.14738135	-1.2645707	0.9011625	-0.17970711	-1.216887	0.91169454	0.062459726	-1.4429653	0.92726003	-0.033967278	-1.2462967	1.3810393	-0.20181653	-1.286103	1.3711598	0.11735554	-1.3435167	1.4106576	-0.057427298	-1.2891941	1.0419013	-0.30629304	-1.463956	1.0660591	0.14276397	-1.0776489	0.91708882	-0.25313273	-1.3804084	0.85054518	0.22492764
8	0.028	-1.4916332	0.038175543	-0.12397988	-0.82774514	0.10198678	0.038041813	-1.6224257	0.071694477	-0.13508683	-0.96415176	0.066837262	0.063980914	-1.6075275	0.09089885	-0.05241507	-0.95324937	0.10408671	-0.015866333	NaN	NaN	NaN	-0.99692738	0.026705688	0.0094209717	-1.457324	0.4232887	-0.17526612	-1.111439	0.4397035	0.10210895	-1.4496463	0.39792648	-0.053985815	-1.093646	0.44898435	-0.027216349	-1.3457587	0.80150151	-0.23478666	-1.2665301	0.8208897	0.14751155	-1.2602993	0.90006759	-0.17997273	-1.2113575	0.91058042	0.062058462	-1.4370386	0.92543581	-0.030432182	-1.2413432	1.3797005	-0.20175512	-1.2814715	1.369919	0.11738888	-1.338788	1.4093737	-0.057542801	-1.2826966	1.0402264	-0.30551709	-1.4607914	1.0656675	0.14218773	-1.0702903	0.91762524	-0.2518281	-1.3783865	0.84989116	0.22524863
